<?xml version="1.0" standalone="no"?>
<!DOCTYPE svg PUBLIC "-//W3C//DTD SVG 20010904//EN"
 "http://www.w3.org/TR/2001/REC-SVG-20010904/DTD/svg10.dtd">
<svg version="1.0" xmlns="http://www.w3.org/2000/svg"
 width="747.000000pt" height="682.000000pt" viewBox="0 0 747.000000 682.000000"
 preserveAspectRatio="xMidYMid meet">

<g transform="translate(0.000000,682.000000) scale(0.100000,-0.100000)"
fill="#212121" stroke="none">
<path d="M1819 5604 c-959 -669 -1748 -1220 -1754 -1225 -5 -5 102 -9 261 -9
l270 0 1498 1005 1497 1005 1457 -1005 1457 -1004 310 -1 c189 0 305 4 300 9
-9 8 -3510 2415 -3541 2434 -7 4 -754 -510 -1755 -1209z"/>
<path d="M3181 5390 c-308 -260 -381 -325 -381 -345 0 -20 71 -84 370 -335
204 -171 383 -316 399 -321 22 -8 36 -7 58 5 15 8 186 151 378 318 265 229
351 309 353 328 4 32 8 28 -406 384 -267 229 -338 286 -361 286 -23 0 -106
-65 -410 -320z m578 -25 c88 -156 161 -287 161 -290 0 -3 -150 -5 -334 -5
l-335 0 167 290 c92 160 170 290 173 290 3 0 79 -128 168 -285z m-407 -31
l-149 -259 -167 -3 -168 -2 314 263 c172 146 314 263 316 262 1 -1 -64 -119
-146 -261z m933 -255 c5 -5 -58 -9 -150 -9 l-160 1 -145 256 c-80 141 -147
261 -149 266 -2 6 546 -461 604 -514z m-955 -291 c74 -127 143 -247 153 -266
16 -29 -9 -11 -135 95 -84 71 -226 191 -316 266 l-163 137 163 0 163 0 135
-232z m590 227 c0 -11 -323 -575 -329 -575 -6 0 -330 546 -339 571 -2 5 138 9
332 9 185 0 336 -2 336 -5z m365 -4 c-58 -53 -606 -520 -604 -514 2 5 69 125
149 266 l145 256 160 1 c92 0 155 -4 150 -9z"/>
<path d="M548 4081 c-290 -4 -530 -10 -533 -13 -4 -3 51 -10 122 -14 184 -13
7046 -11 7208 1 l130 10 -105 7 c-140 10 -6151 17 -6822 9z"/>
<path d="M4890 3835 c-138 -39 -231 -136 -275 -290 -24 -80 -17 -237 14 -318
93 -242 380 -323 576 -162 163 133 198 437 72 622 -87 125 -247 187 -387 148z
m202 -91 c107 -74 156 -281 112 -473 -18 -81 -57 -147 -110 -187 -31 -24 -48
-29 -108 -32 -88 -3 -135 20 -183 92 -106 157 -92 456 27 575 49 48 85 62 157
58 50 -2 71 -9 105 -33z"/>
<path d="M5662 3835 c-30 -7 -73 -26 -95 -42 -120 -84 -123 -261 -7 -354 19
-16 87 -51 149 -79 126 -55 155 -76 172 -127 22 -69 -7 -133 -75 -164 -47 -21
-154 -25 -205 -8 -32 11 -35 17 -49 104 l-7 50 -43 3 -42 3 0 -89 0 -90 48
-20 c191 -82 400 -36 463 102 25 56 24 138 -2 193 -28 59 -80 97 -212 154
-139 60 -177 96 -177 164 0 64 23 103 73 126 48 21 130 25 167 6 18 -9 27 -24
33 -57 17 -94 14 -90 57 -90 l40 0 0 83 c0 80 -1 83 -29 100 -36 21 -135 47
-176 46 -16 0 -54 -7 -83 -14z"/>
<path d="M1602 3823 c-6 -10 -65 -180 -133 -378 -67 -198 -127 -366 -132 -372
-5 -7 -21 -13 -36 -13 -50 0 -71 -11 -71 -36 l0 -24 145 0 145 0 0 25 c0 20
-6 25 -37 30 -21 3 -48 8 -60 11 l-22 4 33 98 33 97 144 3 145 3 32 -99 c18
-54 32 -101 32 -105 0 -4 -17 -7 -37 -7 -62 0 -83 -10 -83 -36 l0 -24 170 0
170 0 0 24 c0 25 -21 36 -71 36 -26 0 -30 10 -159 390 l-132 390 -34 0 c-22 0
-37 -6 -42 -17z m73 -314 c30 -90 55 -167 55 -171 0 -4 -54 -8 -121 -8 -111 0
-121 1 -114 18 4 9 29 82 56 162 63 184 59 174 64 168 3 -3 30 -79 60 -169z"/>
<path d="M170 3800 c0 -27 3 -30 33 -30 17 0 42 -3 55 -6 l22 -6 0 -343 c0
-373 3 -355 -55 -355 -39 0 -55 -11 -55 -36 l0 -24 140 0 140 0 0 25 c0 20 -6
25 -37 30 -21 4 -43 8 -49 10 -7 2 -13 100 -17 301 -4 164 -5 299 -4 300 1 1
63 -147 138 -329 l136 -332 34 -3 34 -2 129 335 c72 184 131 335 133 335 2 0
3 -137 3 -305 l0 -305 -32 0 c-57 0 -78 -10 -78 -36 l0 -24 170 0 170 0 0 25
c0 25 -10 29 -90 37 l-25 3 -3 347 -2 347 32 5 c18 3 44 7 58 8 19 2 26 10 28
31 l3 28 -123 -3 -123 -3 -130 -337 c-71 -185 -132 -334 -135 -331 -3 2 -66
154 -141 336 l-135 332 -112 3 -112 3 0 -31z"/>
<path d="M2094 3815 c-11 -27 4 -45 38 -45 18 0 43 -3 56 -6 l22 -6 0 -349 0
-349 -29 0 c-63 0 -91 -11 -91 -36 l0 -24 175 0 175 0 0 24 c0 26 -21 36 -77
36 l-33 0 0 160 0 160 60 0 c75 0 124 -20 144 -58 8 -16 30 -87 47 -158 42
-167 50 -176 156 -172 76 3 78 4 81 30 3 24 -1 28 -35 33 -21 4 -42 8 -47 9
-4 1 -24 53 -43 116 -39 129 -61 172 -104 197 -16 10 -29 20 -29 23 0 3 20 13
45 23 125 52 171 200 95 305 -58 81 -144 102 -412 102 -158 0 -190 -2 -194
-15z m459 -74 c46 -28 72 -93 63 -152 -17 -103 -67 -141 -198 -147 l-88 -4 0
167 0 168 94 -5 c73 -4 102 -10 129 -27z"/>
<path d="M2790 3801 c0 -28 2 -30 46 -33 l46 -3 119 -320 c188 -504 167 -457
198 -453 25 3 31 18 153 378 70 206 128 378 130 383 2 4 27 10 56 14 49 5 52
7 52 35 l0 29 -142 -3 -143 -3 -3 -26 c-3 -22 2 -27 29 -33 17 -3 43 -6 56 -6
16 0 23 -5 21 -12 -3 -7 -47 -138 -98 -291 -51 -153 -96 -275 -100 -270 -7 8
-200 553 -200 566 0 4 11 7 24 7 13 0 38 3 55 6 26 6 31 11 31 35 l0 29 -165
0 -165 0 0 -29z"/>
<path d="M3894 3815 c-11 -27 4 -45 38 -45 18 0 43 -3 56 -6 l22 -6 0 -349 0
-349 -29 0 c-63 0 -91 -11 -91 -36 l0 -24 175 0 175 0 0 24 c0 26 -21 36 -77
36 l-33 0 0 165 0 165 94 0 93 0 9 -62 c8 -59 11 -63 37 -66 l27 -3 0 155 0
156 -29 0 c-28 0 -29 -2 -36 -60 l-7 -60 -94 0 -94 0 0 155 0 155 145 0 144 0
6 -32 c3 -18 9 -53 13 -78 7 -40 11 -45 36 -48 45 -5 49 6 41 122 l-7 106
-304 0 c-262 0 -305 -2 -310 -15z"/>
<path d="M6084 3815 c-11 -27 4 -45 38 -45 18 0 43 -3 56 -6 l22 -6 0 -349 0
-349 -29 0 c-63 0 -91 -11 -91 -36 l0 -24 175 0 175 0 0 24 c0 26 -21 36 -77
36 l-33 0 0 165 0 165 200 0 200 0 0 -165 0 -165 -37 0 c-62 0 -83 -10 -83
-36 l0 -24 175 0 175 0 0 24 c0 26 -21 36 -77 36 l-31 0 -7 117 c-4 64 -6 220
-3 346 5 255 3 247 76 247 40 0 42 1 42 30 l0 30 -176 0 -175 0 3 -27 c2 -21
9 -29 28 -31 14 -1 40 -5 58 -8 l32 -5 0 -154 0 -155 -200 0 -200 0 0 154 c0
171 -2 166 71 166 37 0 39 2 39 30 l0 30 -170 0 c-142 0 -172 -2 -176 -15z"/>
<path d="M992 2839 c-609 -4 -968 -11 -974 -17 -20 -20 872 -27 3712 -27 2802
0 3732 7 3712 27 -23 23 -4197 34 -6450 17z"/>
<path d="M2961 2457 c-49 -25 -79 -91 -50 -110 27 -17 48 0 61 48 12 43 14 45
49 45 52 0 80 -26 86 -81 8 -69 -22 -124 -121 -227 -64 -66 -86 -96 -86 -116
l0 -26 145 0 145 0 0 30 0 30 -116 0 -116 0 89 93 c98 103 123 145 123 206 0
53 -17 89 -51 107 -34 17 -125 18 -158 1z"/>
<path d="M3316 2436 c-19 -19 -40 -52 -47 -73 -21 -57 -18 -217 4 -274 51
-132 188 -145 251 -24 18 34 21 58 21 165 0 113 -2 129 -23 166 -30 52 -68 74
-126 74 -38 0 -51 -5 -80 -34z m133 -17 c30 -33 44 -114 39 -226 -5 -108 -23
-156 -64 -175 -20 -10 -29 -8 -52 9 -40 29 -54 83 -54 203 -1 103 12 159 43
197 17 20 66 16 88 -8z"/>
<path d="M3691 2457 c-49 -25 -79 -91 -50 -110 27 -17 48 0 61 48 12 43 14 45
49 45 52 0 80 -26 86 -81 8 -69 -22 -124 -121 -227 -64 -66 -86 -96 -86 -116
l0 -26 145 0 145 0 0 30 0 30 -116 0 -116 0 89 93 c98 103 123 145 123 206 0
53 -17 89 -51 107 -34 17 -125 18 -158 1z"/>
<path d="M4058 2454 c-31 -16 -48 -43 -48 -73 0 -17 6 -21 30 -21 25 0 31 5
41 40 11 38 14 40 51 40 83 0 119 -91 59 -151 -22 -21 -39 -29 -65 -29 -29 0
-36 -4 -36 -20 0 -17 7 -20 39 -20 28 0 49 -8 70 -26 27 -22 31 -33 31 -73 0
-57 -19 -86 -66 -101 -54 -18 -81 -7 -94 39 -11 43 -31 56 -61 41 -24 -13 -24
-17 1 -58 27 -44 80 -66 143 -59 90 11 137 59 137 140 0 52 -24 88 -70 107
l-31 13 28 17 c39 24 53 43 59 82 13 77 -42 128 -136 128 -30 -1 -67 -7 -82
-16z"/>
<path d="M70 2436 c29 -26 3535 -2429 3546 -2430 7 -1 799 548 1761 1219
l1749 1220 -268 3 -269 2 -1367 -916 c-752 -505 -1426 -957 -1499 -1006 l-132
-90 -1459 1006 -1460 1006 -308 0 c-260 0 -306 -2 -294 -14z"/>
<path d="M2790 1726 c0 -6 724 -497 759 -515 13 -8 37 -10 55 -7 30 6 785 504
786 519 0 4 -360 7 -800 7 -440 0 -800 -2 -800 -4z"/>
</g>
</svg>
